<svg width="300" height="286" viewBox="0 0 300 286" fill="none" xmlns="http://www.w3.org/2000/svg">
<ellipse cx="149.198" cy="143.99" rx="106.098" ry="66.6558" transform="rotate(1.44615 149.198 143.99)" fill="#F18C8C"/>
<ellipse cx="155.369" cy="144.582" rx="106.098" ry="32.7583" transform="rotate(99.4892 155.369 144.582)" fill="#F18C8C"/>
<ellipse cx="150.456" cy="141.909" rx="106.098" ry="32.7583" transform="rotate(60.3737 150.456 141.909)" fill="#F18C8C"/>
<path d="M96.42 103H117.12C121.8 103 125.92 103.86 129.48 105.58C133.08 107.26 135.86 109.68 137.82 112.84C139.82 116 140.82 119.72 140.82 124C140.82 128.28 139.82 132 137.82 135.16C135.86 138.32 133.08 140.76 129.48 142.48C125.92 144.16 121.8 145 117.12 145H96.42V103ZM116.52 133.96C119.56 133.96 121.98 133.1 123.78 131.38C125.62 129.62 126.54 127.16 126.54 124C126.54 120.84 125.62 118.4 123.78 116.68C121.98 114.92 119.56 114.04 116.52 114.04H110.58V133.96H116.52ZM187.39 103V145H175.75L159.79 125.92V145H145.99V103H157.63L173.59 122.08V103H187.39Z" fill="white"/>
<path d="M64.918 162.85H58.222L56.836 166H54.982L60.688 153.4H62.47L68.194 166H66.304L64.918 162.85ZM64.288 161.41L61.57 155.236L58.852 161.41H64.288ZM71.9428 154.966H67.6228V153.4H78.0448V154.966H73.7248V166H71.9428V154.966ZM89.1492 164.434V166H80.0052V153.4H88.8972V154.966H81.8052V158.836H88.1232V160.366H81.8052V164.434H89.1492ZM92.0638 153.4H93.8638V164.434H100.686V166H92.0638V153.4ZM102.751 153.4H104.551V166H102.751V153.4ZM117.468 164.434V166H108.324V153.4H117.216V154.966H110.124V158.836H116.442V160.366H110.124V164.434H117.468ZM114.444 152.374L112.788 150.988L111.132 152.374H109.566L111.96 150.034H113.616L116.01 152.374H114.444ZM125.216 153.4H130.526C131.858 153.4 133.04 153.664 134.072 154.192C135.104 154.72 135.902 155.464 136.466 156.424C137.042 157.372 137.33 158.464 137.33 159.7C137.33 160.936 137.042 162.034 136.466 162.994C135.902 163.942 135.104 164.68 134.072 165.208C133.04 165.736 131.858 166 130.526 166H125.216V153.4ZM130.418 164.434C131.438 164.434 132.332 164.236 133.1 163.84C133.88 163.444 134.48 162.892 134.9 162.184C135.32 161.464 135.53 160.636 135.53 159.7C135.53 158.764 135.32 157.942 134.9 157.234C134.48 156.514 133.88 155.956 133.1 155.56C132.332 155.164 131.438 154.966 130.418 154.966H127.016V164.434H130.418ZM149.231 164.434V166H140.087V153.4H148.979V154.966H141.887V158.836H148.205V160.366H141.887V164.434H149.231ZM162.614 166.144C161.354 166.144 160.214 165.868 159.194 165.316C158.186 164.752 157.394 163.984 156.818 163.012C156.242 162.028 155.954 160.924 155.954 159.7C155.954 158.476 156.242 157.378 156.818 156.406C157.394 155.422 158.192 154.654 159.212 154.102C160.232 153.538 161.372 153.256 162.632 153.256C163.616 153.256 164.516 153.424 165.332 153.76C166.148 154.084 166.844 154.57 167.42 155.218L166.25 156.352C165.302 155.356 164.12 154.858 162.704 154.858C161.768 154.858 160.922 155.068 160.166 155.488C159.41 155.908 158.816 156.49 158.384 157.234C157.964 157.966 157.754 158.788 157.754 159.7C157.754 160.612 157.964 161.44 158.384 162.184C158.816 162.916 159.41 163.492 160.166 163.912C160.922 164.332 161.768 164.542 162.704 164.542C164.108 164.542 165.29 164.038 166.25 163.03L167.42 164.164C166.844 164.812 166.142 165.304 165.314 165.64C164.498 165.976 163.598 166.144 162.614 166.144ZM175.412 166.144C174.14 166.144 172.994 165.868 171.974 165.316C170.954 164.752 170.15 163.978 169.562 162.994C168.986 162.01 168.698 160.912 168.698 159.7C168.698 158.488 168.986 157.39 169.562 156.406C170.15 155.422 170.954 154.654 171.974 154.102C172.994 153.538 174.14 153.256 175.412 153.256C176.672 153.256 177.812 153.538 178.832 154.102C179.852 154.654 180.65 155.422 181.226 156.406C181.802 157.378 182.09 158.476 182.09 159.7C182.09 160.924 181.802 162.028 181.226 163.012C180.65 163.984 179.852 164.752 178.832 165.316C177.812 165.868 176.672 166.144 175.412 166.144ZM175.412 164.542C176.336 164.542 177.164 164.332 177.896 163.912C178.64 163.492 179.222 162.916 179.642 162.184C180.074 161.44 180.29 160.612 180.29 159.7C180.29 158.788 180.074 157.966 179.642 157.234C179.222 156.49 178.64 155.908 177.896 155.488C177.164 155.068 176.336 154.858 175.412 154.858C174.488 154.858 173.648 155.068 172.892 155.488C172.148 155.908 171.56 156.49 171.128 157.234C170.708 157.966 170.498 158.788 170.498 159.7C170.498 160.612 170.708 161.44 171.128 162.184C171.56 162.916 172.148 163.492 172.892 163.912C173.648 164.332 174.488 164.542 175.412 164.542ZM188.513 166.144C187.565 166.144 186.647 166 185.759 165.712C184.883 165.412 184.193 165.028 183.689 164.56L184.355 163.156C184.835 163.588 185.447 163.942 186.191 164.218C186.947 164.482 187.721 164.614 188.513 164.614C189.557 164.614 190.337 164.44 190.853 164.092C191.369 163.732 191.627 163.258 191.627 162.67C191.627 162.238 191.483 161.89 191.195 161.626C190.919 161.35 190.571 161.14 190.151 160.996C189.743 160.852 189.161 160.69 188.405 160.51C187.457 160.282 186.689 160.054 186.101 159.826C185.525 159.598 185.027 159.25 184.607 158.782C184.199 158.302 183.995 157.66 183.995 156.856C183.995 156.184 184.169 155.578 184.517 155.038C184.877 154.498 185.417 154.066 186.137 153.742C186.857 153.418 187.751 153.256 188.819 153.256C189.563 153.256 190.295 153.352 191.015 153.544C191.735 153.736 192.353 154.012 192.869 154.372L192.275 155.812C191.747 155.476 191.183 155.224 190.583 155.056C189.983 154.876 189.395 154.786 188.819 154.786C187.799 154.786 187.031 154.972 186.515 155.344C186.011 155.716 185.759 156.196 185.759 156.784C185.759 157.216 185.903 157.57 186.191 157.846C186.479 158.11 186.833 158.32 187.253 158.476C187.685 158.62 188.267 158.776 188.999 158.944C189.947 159.172 190.709 159.4 191.285 159.628C191.861 159.856 192.353 160.204 192.761 160.672C193.181 161.14 193.391 161.77 193.391 162.562C193.391 163.222 193.211 163.828 192.851 164.38C192.491 164.92 191.945 165.352 191.213 165.676C190.481 165.988 189.581 166.144 188.513 166.144ZM198.347 154.966H194.027V153.4H204.449V154.966H200.129V166H198.347V154.966ZM211.401 166.144C209.721 166.144 208.413 165.664 207.477 164.704C206.541 163.744 206.073 162.364 206.073 160.564V153.4H207.873V160.492C207.873 163.192 209.055 164.542 211.419 164.542C212.571 164.542 213.453 164.212 214.065 163.552C214.677 162.88 214.983 161.86 214.983 160.492V153.4H216.729V160.564C216.729 162.376 216.261 163.762 215.325 164.722C214.389 165.67 213.081 166.144 211.401 166.144ZM228.843 166L226.125 162.13C225.789 162.154 225.525 162.166 225.333 162.166H222.219V166H220.419V153.4H225.333C226.965 153.4 228.249 153.79 229.185 154.57C230.121 155.35 230.589 156.424 230.589 157.792C230.589 158.764 230.349 159.592 229.869 160.276C229.389 160.96 228.705 161.458 227.817 161.77L230.805 166H228.843ZM225.279 160.636C226.419 160.636 227.289 160.39 227.889 159.898C228.489 159.406 228.789 158.704 228.789 157.792C228.789 156.88 228.489 156.184 227.889 155.704C227.289 155.212 226.419 154.966 225.279 154.966H222.219V160.636H225.279ZM241.525 162.85H234.829L233.443 166H231.589L237.295 153.4H239.077L244.801 166H242.911L241.525 162.85ZM240.895 161.41L238.177 155.236L235.459 161.41H240.895Z" fill="white"/>
</svg>
